<svg height="510" width="720" xmlns="http://www.w3.org/2000/svg">
<rect height="510" fill="#555" width="720"></rect>
<text fill="#7f7" font-family="Courier New" font-size="12" xml:space="preserve">
<tspan x="10" y="26">2017-04-28 00:42:24 +0800</tspan>
<tspan x="10" y="42">[npm publishAfterCommitAfterBuild]</tspan>
<tspan x="10" y="58">2017-04-25 19:30:36 +0000</tspan>
<tspan x="10" y="74">[ci skip] npm published</tspan>
<tspan x="10" y="90"></tspan>
<tspan x="10" y="106">2017-04-26 02:03:45 +0800</tspan>
<tspan x="10" y="122">[npm publishAfterCommitAfterBuild]</tspan>
<tspan x="10" y="138">2017-04-19 18:06:44 +0000</tspan>
<tspan x="10" y="154">[ci skip] npm published</tspan>
<tspan x="10" y="170"></tspan>
<tspan x="10" y="186">2017-04-20 01:09:28 +0800</tspan>
<tspan x="10" y="202">[npm publishAfterCommitAfterBuild]</tspan>
<tspan x="10" y="218">2017-04-08 07:44:50 +0000</tspan>
<tspan x="10" y="234">[ci skip] npm published</tspan>
<tspan x="10" y="250"></tspan>
<tspan x="10" y="266">2017-04-08 13:29:20 +0800</tspan>
<tspan x="10" y="282">[npm publishAfterCommitAfterBuild]</tspan>
<tspan x="10" y="298">2017-04-07 20:59:35 +0000</tspan>
<tspan x="10" y="314">[ci skip] npm published</tspan>
<tspan x="10" y="330"></tspan>
<tspan x="10" y="346">2017-04-07 18:13:17 +0800</tspan>
<tspan x="10" y="362">[npm publishAfterCommitAfterBuild]</tspan>
<tspan x="10" y="378">2017-04-02 06:53:43 +0000</tspan>
<tspan x="10" y="394">[npm publishAfterCommit]</tspan>
<tspan x="10" y="410"></tspan>
<tspan x="10" y="426">2017-04-02 06:28:04 +0000</tspan>
<tspan x="10" y="442">[npm publishAfterCommitAfterBuild]</tspan>
<tspan x="10" y="458"></tspan>
<tspan x="10" y="474">2014-03-26 02:31:50 +0700</tspan>
<tspan x="10" y="490">add blank README.md</tspan>
</text>
</svg>
